PathFileType	4	(X/Y/Z)	Patient4_TMGait_0pt6_01_left_04.trc.trc
DataRate	CameraRate	NumFrames	NumMarkers	Units	OrigDataRate	OrigDataStartFrame	OrigNumFrames
78.651685393258	78.651685393258	4	33	mm	78.651685393258	36	       141
Frame#	Time	Sacral			L.Shoulder			Chest			R.Shoulder			Neck			R.ASIS			L.ASIS			R.Thigh.Superior			R.Thigh.Lateral			R.Thigh.Inferior			R.Patella			L.Thigh.Superior			L.Thigh.Lateral			L.Thigh.Inferior			L.Patella			L.Shank.Superior			L.Shank.Lateral			L.Shank.Inferior			R.Shank.Superior			R.Shank.Lateral			R.Shank.Inferior			R.Heel			R.Midfoot.Superior			R.Midfoot.Lateral			R.Toe			L.Heel			L.Midfoot.Lateral			L.Midfoot.Superior			L.Toe			L.Elbow			L.Wrist			R.Elbow			R.Wrist			
		X1	Y1	Z1	X2	Y2	Z2	X3	Y3	Z3	X4	Y4	Z4	X5	Y5	Z5	X6	Y6	Z6	X7	Y7	Z7	X8	Y8	Z8	X9	Y9	Z9	X10	Y10	Z10	X11	Y11	Z11	X12	Y12	Z12	X13	Y13	Z13	X14	Y14	Z14	X15	Y15	Z15	X16	Y16	Z16	X17	Y17	Z17	X18	Y18	Z18	X19	Y19	Z19	X20	Y20	Z20	X21	Y21	Z21	X22	Y22	Z22	X23	Y23	Z23	X24	Y24	Z24	X25	Y25	Z25	X26	Y26	Z26	X27	Y27	Z27	X28	Y28	Z28	X29	Y29	Z29	X30	Y30	Z30	X31	Y31	Z31	X32	Y32	Z32	X33	Y33	Z33	

36	5.215000000000	630.619361296156	1003.401086255070	462.791878046246	778.550001181938	1426.306877115750	267.305929710234	901.747995223482	1360.182683262603	415.559482679979	838.283850693877	1436.826373568810	595.681143239749	787.035243376932	1488.903413385802	418.744002120774	860.278290272699	930.755305157302	564.768071598269	833.992841878628	957.087187024557	291.933893848220	868.878003047429	718.024602071768	541.292168986170	772.764956842824	619.823913992218	604.715433929827	842.224921798204	553.132961633546	528.985993294040	823.691223248751	450.644624236376	543.640399887041	906.435861011751	764.523349217837	328.465425727509	839.507374867659	637.673094828606	264.265295688055	934.702163982717	572.433038612951	328.277627952212	945.047527873013	500.681445852265	335.341691883064	924.114886093158	425.881889129767	327.467870358183	844.829117849008	303.598777922849	276.992396474631	907.991937277184	198.048607959449	348.001568621676	754.541108466449	381.835044009978	547.799857056329	642.336028405058	323.400130026533	609.692630067131	639.801926737289	216.976753383481	551.930074182503	447.793441818389	109.278196568232	522.507697315858	626.312484455096	106.969478906110	561.429533261762	522.568950072500	72.247428759954	595.253060494938	721.358973416399	33.332561409511	587.278227850834	791.901140384511	38.010424700697	392.195697519659	865.690834668676	35.332282023452	310.704118506915	948.102161270410	97.618998876720	336.630799880403	1076.645592471311	47.706939557838	308.936687496974	702.286178568914	1076.887105100932	162.630865567811	736.554220090227	818.399474398006	166.045456635409	908.828972806553	1095.141682896480	708.028972218336	1131.267148431348	1041.591118847959	598.913148845455	
37	5.227714285714	630.930080672700	1004.258088049019	459.504238678750	779.250357787538	1427.405169267664	264.413545976926	901.489451176646	1361.664390786468	413.562812323350	836.510867367988	1438.231433032475	593.150184821739	786.397682769225	1490.086621631255	415.839355041354	860.116285621303	932.227075261395	562.784735153725	835.230127113449	958.014365691446	289.938585394331	873.176005008027	720.270358314516	540.325838653411	779.379974567267	620.375715584893	603.896422160095	851.313787125273	554.478812378785	528.968190229121	833.730830137713	450.241100261694	545.119854172962	905.992959923666	763.944126940621	324.707027015028	836.577876638885	637.668057209523	262.175458727510	931.731034740836	571.543603655261	325.157219072193	941.423395982116	499.964749759509	332.763783639877	919.760954846418	425.231398384963	325.393325678625	839.039246788098	303.531389197326	275.769110850143	901.421811381586	197.721124455877	347.034766329902	761.953880786132	382.761118474739	548.496279672812	647.174499860652	328.739638565213	609.654406809372	641.856806084545	221.981070005351	552.663369656589	446.289713944624	122.643467354739	522.595142581281	624.322343063906	110.654575748508	561.882045905447	518.832827792611	81.224693883407	595.254221899019	714.645877417586	32.468866608969	587.320967629460	784.293272305803	38.006985038402	392.058177226863	858.051294316255	35.248849759287	310.508957823068	940.436811839157	97.607304927335	336.310744071307	1069.007003594720	47.810240922753	308.724230084663	709.504122296026	1076.237756261251	159.536880017518	752.075835652220	818.996291827747	163.634751116106	902.020939773001	1095.117770466544	705.317647615651	1120.961730364152	1019.754852105231	599.171306440274	
38	5.240428571429	631.051419525190	1005.006186276762	456.321022743019	780.079449182198	1428.369440744474	261.547375048238	901.188380961399	1363.018104453615	411.717146600368	834.536905252265	1439.488376580471	590.713052529375	785.711705974530	1491.175432277118	412.963055244648	859.849291712679	933.575592789821	561.015435607253	836.292436756005	958.812834057187	288.148468545785	877.864521990948	722.735910551024	539.533028252417	786.587466155840	621.060512907428	603.249510571828	860.989552030480	556.117692105763	529.057467532940	844.408004684538	450.222579308632	546.465145417691	905.111579496408	763.087194360093	320.751258606027	833.079025065364	637.574436346255	260.041450564884	928.210314374485	570.539784895257	321.922910150082	937.244857437652	499.187949271316	329.982106517727	914.914931093382	424.560047850558	323.179154890918	832.805901699248	303.370710798812	274.537721392626	894.653649805879	197.388854879714	345.977801550337	770.145911659447	383.975964661186	549.082088296691	652.997966574900	334.422831431930	609.535763039731	644.709386178538	227.540964135343	553.196592077349	445.900739428197	136.982890143117	522.458863811035	622.953847094809	115.190527733783	562.107979175554	515.946929469717	91.318832567729	595.101744510093	708.385561983294	31.889974370067	587.388670987966	776.646897373951	37.996790725154	391.933689920189	850.370556720969	35.129285185484	310.326421160323	932.763526212017	97.539820683167	335.981506259883	1061.351219685730	47.787408397138	308.528609264194	716.881265137135	1075.674921002479	156.288858382028	767.987069126855	819.980499726207	161.213827794863	895.162946751997	1095.027055603118	702.718778419461	1108.800571566316	998.211891684067	600.366082277304	
39	5.253142857143	630.964709501302	1005.622749079019	453.292935002753	780.986512885020	1429.168366071446	258.749688694801	900.836279576854	1364.209550956837	410.034017004448	832.411412488700	1440.575139449402	588.398097508733	784.992170764973	1492.153114100197	410.151894187119	859.480190781278	934.772295835206	559.444142843094	837.139497652779	959.504799615634	286.535323035497	882.829454723716	725.418407110781	538.837096748396	794.279464570046	621.923648664478	602.744466638658	871.079697345367	558.087413170378	529.201955566697	855.592032435910	450.638475879439	547.623402560321	903.856537410523	762.059927193893	316.778479494919	829.227180773007	637.460830708166	257.915504010901	924.278629080487	569.490806928759	318.736365659293	932.630158029523	498.384409674390	327.152474428721	909.700267689434	423.893901198856	320.938646783523	826.280969170859	303.162067070710	273.308201108691	887.751656125639	197.063894925188	344.884619778058	779.006879818838	385.496571216489	549.535305206750	659.712035930956	340.394080843071	609.311202577128	648.317566485747	233.605493188407	553.506607763912	446.665374656042	152.013346763838	522.074488638425	622.259139458239	120.591181155282	562.105211278279	514.012580965488	102.360524135290	594.772279696271	702.748875224855	31.801084839152	587.475115825932	768.976453693896	37.989874904145	391.809624794611	842.668225606599	34.990602097319	310.151685670535	925.099159477707	97.430527653891	335.652027469015	1053.692433785650	47.657661971540	308.353562824583	724.442314381624	1075.171070868619	152.905800010257	784.205556967152	821.325672832486	158.800553235097	888.147655112822	1094.821855290685	700.312648385717	1094.725502500535	977.220515974334	602.598131766794	
